<?xml version="1.0" encoding="UTF-8"?>
<svg width="71px" height="61px" viewBox="0 0 71 61" version="1.1" xmlns="http://www.w3.org/2000/svg" xmlns:xlink="http://www.w3.org/1999/xlink">
    <!-- Generator: Sketch 52.5 (67469) - http://www.bohemiancoding.com/sketch -->
    <title>Group</title>
    <desc>Created with Sketch.</desc>
    <g id="Style-Guide" stroke="none" stroke-width="1" fill="none" fill-rule="evenodd">
        <g id="Icons" transform="translate(-668.000000, -157.000000)" fill="#6B6B6B">
            <g id="Group" transform="translate(668.000000, 157.000000)">
                <path d="M49.1604,0.709526316 C47.1873889,0.709526316 45.2964222,0.890118421 43.5419333,1.29303947 C40.9133556,1.90464474 38.5719333,3.00826316 36.8584667,4.81498684 C36.3330667,5.35676316 35.8889222,5.97478947 35.5,6.64177632 C34.9059667,5.60718421 34.1415333,4.71064474 33.2335222,3.96740789 C31.7930111,2.78673684 30.0385222,1.98089474 28.1065333,1.45998684 C26.1745444,0.939078947 24.0579556,0.709526316 21.8396,0.709526316 L0,0.709526316 L0,60.2912763 L71,60.2912763 L71,0.709526316 L49.1604,0.709526316 Z M2.73113333,57.5125658 L2.73113333,53.1085263 L26.4001667,53.1085263 C28.6666444,53.1085263 30.6467556,53.6430789 31.9776111,54.5877763 C32.6465889,55.0597237 33.1585778,55.6223684 33.5206778,56.2965789 C33.7186889,56.6649868 33.8685778,57.0679079 33.9711333,57.5117632 L2.73113333,57.5117632 L2.73113333,57.5125658 Z M34.1281222,52.7754342 C33.4867556,52.2264342 32.7562444,51.7681316 31.9705111,51.4205921 C30.3114778,50.6701316 28.4071,50.3298158 26.3993778,50.3298158 L2.73113333,50.3298158 L2.73113333,3.48743421 L21.8396,3.48743421 C23.6422111,3.48743421 25.3422667,3.65438158 26.8577222,4.00111842 C29.1313,4.52925 30.9607333,5.45307895 32.1827222,6.74451316 C32.7972667,7.39063158 33.2745444,8.13386842 33.6098222,9.00873684 C33.9372111,9.87718421 34.1289111,10.8909079 34.1289111,12.0860263 L34.1289111,52.7754342 L34.1281222,52.7754342 Z M68.2688667,57.5125658 L37.0288667,57.5125658 C37.1314222,57.0679079 37.2813111,56.6649868 37.4793222,56.2973816 C38.0252333,55.2900789 38.9127333,54.5123289 40.1347222,53.9569079 C41.3567111,53.4079079 42.8997778,53.1093289 44.5998333,53.1093289 L68.2688667,53.1093289 L68.2688667,57.5125658 Z M68.2688667,50.3306184 L44.6006222,50.3306184 C41.9310222,50.3378421 39.4255111,50.935 37.4667,52.3034868 C37.2615889,52.4495658 37.0635778,52.6092895 36.8655667,52.7754342 L36.8726667,12.0868289 C36.8726667,10.4960132 37.2071556,9.22544737 37.7735778,8.17640789 C38.2035222,7.38421053 38.7699444,6.71802632 39.4799444,6.12728947 C40.5449444,5.25242105 41.9373333,4.58543421 43.5900556,4.148 C45.2356778,3.70334211 47.1329556,3.48823684 49.1604,3.48823684 L68.2688667,3.48823684 L68.2688667,50.3306184 Z" id="Shape" fill-rule="nonzero"></path>
                <rect id="Rectangle" x="8.04903333" y="10.3226447" width="20.0780111" height="2.77871053"></rect>
                <rect id="Rectangle" x="8.04903333" y="18.0319211" width="20.0780111" height="2.77871053"></rect>
                <rect id="Rectangle" x="8.04903333" y="25.7347763" width="20.0780111" height="2.77871053"></rect>
                <rect id="Rectangle" x="8.04903333" y="33.4384342" width="20.0780111" height="2.77871053"></rect>
                <rect id="Rectangle" x="8.04903333" y="41.1412895" width="20.0780111" height="2.77871053"></rect>
                <rect id="Rectangle" x="42.5250556" y="10.3226447" width="20.0780111" height="2.77871053"></rect>
                <rect id="Rectangle" x="42.5250556" y="18.0319211" width="20.0780111" height="2.77871053"></rect>
                <rect id="Rectangle" x="42.5250556" y="25.7347763" width="20.0780111" height="2.77871053"></rect>
                <rect id="Rectangle" x="42.5250556" y="33.4384342" width="20.0780111" height="2.77871053"></rect>
                <rect id="Rectangle" x="42.5250556" y="41.1412895" width="20.0780111" height="2.77871053"></rect>
            </g>
        </g>
    </g>
</svg>