<?xml version="1.0" encoding="UTF-8"?>
<svg width="45px" height="61px" viewBox="0 0 45 61" version="1.1" xmlns="http://www.w3.org/2000/svg" xmlns:xlink="http://www.w3.org/1999/xlink">
    <!-- Generator: Sketch 52.5 (67469) - http://www.bohemiancoding.com/sketch -->
    <title>noun_Unlock_1603495</title>
    <desc>Created with Sketch.</desc>
    <g id="Style-Guide" stroke="none" stroke-width="1" fill="none" fill-rule="evenodd">
        <g id="Icons" transform="translate(-421.000000, -157.000000)" fill="#575962" fill-rule="nonzero">
            <g id="noun_Unlock_1603495" transform="translate(421.000000, 157.000000)">
                <path d="M15.7837048,42.7 C15.7837048,39.3309264 18.6103984,36.6 22.0971867,36.6 C25.583975,36.6 28.4106686,39.3309264 28.4106686,42.7 C28.4106686,46.0688873 25.583975,48.8 22.0971867,48.8 C18.6103984,48.8 15.7837048,46.0688873 15.7837048,42.7 Z M44.1943734,30.5 L44.1943734,54.9 C44.1943734,58.2688873 41.3676798,61 37.8808915,61 L6.31348191,61 C2.82669359,61 0,58.2688873 0,54.9 L0,30.5 C0,27.1311127 2.82669359,24.4 6.31348191,24.4 L6.31348191,14.8136475 C6.31348191,6.64506824 13.3945699,0 22.0971867,0 C30.7998035,0 37.8808915,6.64506824 37.8808915,14.8136475 L37.8808915,15.25 L31.5674096,15.25 L31.5674096,14.8136475 C31.5674096,10.0093018 27.3193735,6.1 22.0971867,6.1 C16.8749999,6.1 12.6269638,10.0093018 12.6269638,14.8136475 L12.6269638,24.4 L37.8808915,24.4 C41.3676798,24.4 44.1943734,27.1311127 44.1943734,30.5 Z M37.8808915,30.5 L6.31348191,30.5 L6.31348191,54.9 L37.8808915,54.9 L37.8808915,30.5 Z" id="Shape"></path>
            </g>
        </g>
    </g>
</svg>