<?xml version="1.0" encoding="UTF-8"?>
<svg width="107px" height="61px" viewBox="0 0 107 61" version="1.1" xmlns="http://www.w3.org/2000/svg" xmlns:xlink="http://www.w3.org/1999/xlink">
    <!-- Generator: Sketch 52.5 (67469) - http://www.bohemiancoding.com/sketch -->
    <title>Group</title>
    <desc>Created with Sketch.</desc>
    <g id="Style-Guide" stroke="none" stroke-width="1" fill="none" fill-rule="evenodd">
        <g id="Icons" transform="translate(-238.000000, -157.000000)" fill="#575962">
            <g id="Group" transform="translate(238.000000, 157.000000)">
                <path d="M82.6241016,53.944122 L82.4094936,53.2666448 C76.615076,41.6366196 65.026241,33.7327189 51.7205415,33.7327189 C38.4148421,33.7327189 26.826007,41.6366196 21.0315895,53.1537319 L20.8169814,53.8312091 C20.7096774,54.0570349 20.7096774,54.3957735 20.7096774,54.7345121 L20.7096774,57.5573337 C20.7096774,59.2510267 22.1046298,60.718894 23.7141902,60.718894 L51.7205415,60.718894 L79.8341969,60.718894 C81.4437573,60.718894 82.8387097,59.2510267 82.8387097,57.5573337 L82.8387097,54.7345121 C82.8387097,54.5086863 82.7314056,54.1699477 82.6241016,53.944122 Z" id="Path"></path>
                <path d="M17.4936695,50.2924173 L17.5996917,49.9857562 C20.8863812,44.0569753 25.5513597,39.2526183 31.0645161,35.7771261 C28.0958934,34.4482614 24.7031818,33.7327189 21.2044479,33.7327189 C12.1925575,33.7327189 4.24088957,38.7415165 0.318066718,45.9991621 L0.106022239,46.4080436 C0,46.6124843 0,46.7147047 0,46.9191454 L0,48.6568915 C0,49.7813155 0.954200154,50.5990783 2.01442255,50.5990783 L17.281625,50.5990783 L17.4936695,50.2924173 Z" id="Path"></path>
                <ellipse id="Oval" cx="20.7096774" cy="20.2396313" rx="10.3548387" ry="10.1198157"></ellipse>
                <path d="M89.4601712,50.2905474 L89.3545095,50.0848601 C86.0789993,44.1199281 81.4298881,39.2862763 75.9354839,35.789592 C78.8940092,34.4526245 82.275181,33.7327189 85.7620145,33.7327189 C94.8489138,33.7327189 102.667874,38.6692143 106.683015,45.9711139 L106.894338,46.3824885 C107,46.5881758 107,46.7938631 107,46.8967068 L107,48.6450489 C107,49.7763291 106.049045,50.5990783 104.992429,50.5990783 L89.6714944,50.5990783 L89.4601712,50.2905474 Z" id="Path"></path>
                <ellipse id="Oval" cx="86.2903226" cy="20.2396313" rx="10.3548387" ry="10.1198157"></ellipse>
                <ellipse id="Oval" cx="53.5" cy="15.1797235" rx="15.5322581" ry="15.1797235"></ellipse>
            </g>
        </g>
    </g>
</svg>