<?xml version="1.0" encoding="UTF-8"?>
<svg width="50px" height="61px" viewBox="0 0 50 61" version="1.1" xmlns="http://www.w3.org/2000/svg" xmlns:xlink="http://www.w3.org/1999/xlink">
    <!-- Generator: Sketch 52.5 (67469) - http://www.bohemiancoding.com/sketch -->
    <title>noun_Trash_2034036</title>
    <desc>Created with Sketch.</desc>
    <g id="Style-Guide" stroke="none" stroke-width="1" fill="none" fill-rule="evenodd">
        <g id="Icons" transform="translate(-252.000000, -299.000000)" fill="#575962">
            <g id="noun_Trash_2034036" transform="translate(252.000000, 299.000000)">
                <g id="Group">
                    <path d="M46.9230769,4.82916667 L33.8461538,4.82916667 L33.8461538,4.70208333 C33.8461538,2.2875 31.8589744,0.317708333 29.4230769,0.317708333 L20.5769231,0.317708333 C18.1410256,0.317708333 16.1538462,2.2875 16.1538462,4.70208333 L16.1538462,4.82916667 L3.07692308,4.82916667 C1.73076923,4.82916667 0.576923077,5.909375 0.576923077,7.30729167 L0.576923077,9.08645833 C0.576923077,10.4208333 1.66666667,11.5645833 3.07692308,11.5645833 L46.8589744,11.5645833 C48.2051282,11.5645833 49.3589744,10.484375 49.3589744,9.08645833 L49.3589744,7.30729167 C49.3589744,5.909375 48.2692308,4.82916667 46.9230769,4.82916667 Z" id="Path"></path>
                    <path d="M43.6538462,14.5510417 L6.34615385,14.5510417 C5.64102564,14.5510417 5.06410256,15.1864583 5.12820513,15.8854167 L9.03846154,56.7427083 C9.23076923,58.9666667 11.1538462,60.7458333 13.4615385,60.7458333 L36.4102564,60.7458333 C38.7179487,60.7458333 40.5769231,59.0302083 40.8333333,56.7427083 L44.7435897,15.8854167 C44.8717949,15.1229167 44.3589744,14.5510417 43.6538462,14.5510417 Z M18.0128205,52.5489583 C18.0128205,53.3114583 17.3717949,53.8833333 16.6666667,53.8833333 C15.8974359,53.8833333 15.3205128,53.2479167 15.3205128,52.5489583 L15.3205128,22.684375 C15.3205128,21.921875 15.9615385,21.35 16.6666667,21.35 C17.4358974,21.35 18.0128205,21.9854167 18.0128205,22.684375 L18.0128205,52.5489583 Z M26.3461538,52.5489583 C26.3461538,53.3114583 25.7051282,53.8833333 25,53.8833333 C24.2307692,53.8833333 23.6538462,53.2479167 23.6538462,52.5489583 L23.6538462,22.684375 C23.6538462,21.921875 24.2948718,21.35 25,21.35 C25.7692308,21.35 26.3461538,21.9854167 26.3461538,22.684375 L26.3461538,52.5489583 Z M34.7435897,52.5489583 C34.7435897,53.3114583 34.1025641,53.8833333 33.3974359,53.8833333 C32.6923077,53.8833333 32.0512821,53.2479167 32.0512821,52.5489583 L32.0512821,22.684375 C32.0512821,21.921875 32.6923077,21.35 33.3974359,21.35 C34.1025641,21.35 34.7435897,21.9854167 34.7435897,22.684375 L34.7435897,52.5489583 Z" id="Shape" fill-rule="nonzero"></path>
                </g>
            </g>
        </g>
    </g>
</svg>