<?xml version="1.0" encoding="UTF-8"?>
<svg width="52px" height="61px" viewBox="0 0 52 61" version="1.1" xmlns="http://www.w3.org/2000/svg" xmlns:xlink="http://www.w3.org/1999/xlink">
    <!-- Generator: Sketch 52.5 (67469) - http://www.bohemiancoding.com/sketch -->
    <title>noun_Book_301756</title>
    <desc>Created with Sketch.</desc>
    <g id="Style-Guide" stroke="none" stroke-width="1" fill="none" fill-rule="evenodd">
        <g id="Icons" transform="translate(-540.000000, -157.000000)" fill="#575962">
            <g id="noun_Book_301756" transform="translate(540.000000, 157.000000)">
                <g id="Group">
                    <path d="M49.90422,4.06666667 L49.90422,3.99888889 C49.90422,3.52444444 49.4789,3.11777778 48.9826932,3.11777778 L7.7266477,3.11777778 C6.16714083,3.11777778 4.89118065,4.60888889 4.89118065,4.60888889 L4.67852063,4.94777778 L48.9826932,4.94777778 C49.4789,4.94777778 49.90422,4.54111111 49.90422,4.06666667 Z" id="Path"></path>
                    <path d="M4.67852063,9.42111111 L4.89118065,9.76 C4.89118065,9.76 6.16714083,11.2511111 7.7266477,11.2511111 L48.9826932,11.2511111 C49.4789,11.2511111 49.90422,10.8444444 49.90422,10.37 L49.90422,10.3022222 C49.90422,9.82777778 49.4789,9.42111111 48.9826932,9.42111111 L4.67852063,9.42111111 Z" id="Path"></path>
                    <path d="M50.3295401,7.25222222 L50.3295401,7.18444444 C50.3295401,6.71 49.90422,6.37111111 49.4789,6.37111111 L5.52916074,6.37111111 C5.03295401,6.37111111 4.67852063,6.77777778 4.67852063,7.18444444 L4.67852063,7.25222222 C4.67852063,7.72666667 5.10384068,8.06555556 5.52916074,8.06555556 L49.4080133,8.06555556 C49.9751067,8.06555556 50.3295401,7.72666667 50.3295401,7.25222222 Z" id="Path"></path>
                    <path d="M49.9751067,12.6066667 L42.8864391,12.6066667 C43.4535325,13.0133333 43.8079659,13.6233333 43.8079659,14.2333333 L43.8079659,34.2277778 L37.7117117,30.8388889 L31.6154576,34.2277778 C31.6154576,34.2277778 31.5445709,16.6055556 31.5445709,14.7077778 C31.5445709,13.7588889 30.9065908,13.0133333 30.2686107,12.5388889 L8.29374111,12.5388889 C5.38738739,12.5388889 2.83546705,10.5055556 2.48103367,7.72666667 C2.12660028,4.47333333 4.7494073,1.69444444 8.08108108,1.69444444 L50.4713134,1.69444444 C50.8966335,1.69444444 51.3928402,1.35555556 51.4637269,0.881111111 C51.5346136,0.474444444 51.1092935,0 50.5422001,0 L8.15196776,0 C4.04054054,0 0.637980085,3.25333333 0.637980085,7.18444444 L0.850640114,55.51 C0.850640114,56.4588889 1.20507349,57.4077778 1.91394026,58.0855556 C2.9772404,59.17 4.82029398,60.5933333 7.58487435,60.7966667 C11.4836415,61.0677778 40.5471788,60.8644444 49.4080133,60.7966667 C50.8257468,60.7966667 51.9599336,59.7122222 51.9599336,58.3566667 L51.9599336,14.3011111 C51.8181603,13.42 50.9675202,12.6066667 49.9751067,12.6066667 Z" id="Path"></path>
                </g>
            </g>
        </g>
    </g>
</svg>