<?xml version="1.0" encoding="UTF-8"?>
<svg width="14px" height="19px" viewBox="0 0 14 19" version="1.1" xmlns="http://www.w3.org/2000/svg" xmlns:xlink="http://www.w3.org/1999/xlink">
    <!-- Generator: Sketch 52.5 (67469) - http://www.bohemiancoding.com/sketch -->
    <title>Group</title>
    <desc>Created with Sketch.</desc>
    <g id="Page-1" stroke="none" stroke-width="1" fill="none" fill-rule="evenodd">
        <g id="01_Exams-Copy" transform="translate(-131.000000, -179.000000)" fill="#6B6B6B">
            <g id="Group-13" transform="translate(131.000000, 168.000000)">
                <g id="Group" transform="translate(0.000000, 11.000000)">
                    <path d="M0.466666745,8.57267396e-08 C0.342876276,-7.55830037e-05 0.224134586,0.0499446161 0.13660149,0.139040803 C0.0490683946,0.22813699 -7.42569859e-05,0.348999068 8.42227614e-08,0.475000081 L8.42227614e-08,18.5249999 C-7.42569859e-05,18.6510009 0.0490683946,18.771863 0.13660149,18.8609592 C0.224134586,18.9500554 0.342876276,19.0000756 0.466666745,18.9999999 L13.5333333,18.9999999 C13.6571237,19.0000756 13.7758654,18.9500554 13.8633985,18.8609592 C13.9509316,18.771863 14.0000743,18.6510009 13.9999999,18.5249999 L13.9999999,0.475000081 C14.0000743,0.348999068 13.9509316,0.22813699 13.8633985,0.139040803 C13.7758654,0.0499446161 13.6571237,-7.55830037e-05 13.5333333,8.57267396e-08 L0.466666745,8.57267396e-08 Z M13.0666666,18.0499999 L0.933333406,18.0499999 L0.933333406,0.950000077 L13.0666666,0.950000077 L13.0666666,18.0499999 Z" id="Shape" fill-rule="nonzero"></path>
                    <path d="M2.97464472,5.82421262 C3.07711992,5.9367218 3.2160772,5.99994899 3.36098065,6 C3.37860222,6 3.39674288,5.99882988 3.41488354,5.9969997 C3.57776066,5.9792704 3.7248227,5.8822895 3.81561725,5.73273358 L4.90842801,3.93255564 C5.07550996,3.65682073 5.00756727,3.28456349 4.75662765,3.10084317 C4.50568802,2.91712285 4.16665891,2.99142399 3.99915481,3.26684984 L3.27628781,4.4582376 L2.9278451,4.07557978 C2.71370723,3.84630097 2.37151341,3.84868222 2.1600385,4.08092277 C1.94856359,4.31316333 1.94639526,4.68895866 2.15517325,4.92412366 L2.97464472,5.82421262 Z" id="Path"></path>
                    <path d="M7.41666667,5 L11.5833333,5 C11.813452,5 12,4.77614237 12,4.5 C12,4.22385763 11.813452,4 11.5833333,4 L7.41666667,4 C7.18654802,4 7,4.22385763 7,4.5 C7,4.77614237 7.18654802,5 7.41666667,5 Z" id="Path"></path>
                    <path d="M2.97449754,8.82425834 C3.07695727,8.93673825 3.21589356,8.999949 3.36077513,9 C3.37839405,9 3.39653196,8.99883019 3.41466988,8.99700048 C3.57752241,8.9792758 3.72456225,8.88232012 3.81534308,8.73280309 L4.90798883,6.93309329 C5.01645388,6.7547644 5.02998217,6.52642199 4.94347273,6.3341648 C4.85696329,6.14190762 4.68357434,6.01497829 4.48868389,6.00123676 C4.29379343,5.98749523 4.10704463,6.08903161 3.99885293,6.26756061 L3.27609509,7.45863855 L2.92770499,7.07608023 C2.71359946,6.84686105 2.37145731,6.84924168 2.16001433,7.08142184 C1.94857136,7.31360199 1.94640335,7.6892996 2.15514981,7.92440344 L2.97449754,8.82425834 Z" id="Path"></path>
                    <path d="M7.41666667,8 L11.5833333,8 C11.813452,8 12,7.77614237 12,7.5 C12,7.22385763 11.813452,7 11.5833333,7 L7.41666667,7 C7.18654802,7 7,7.22385763 7,7.5 C7,7.77614237 7.18654802,8 7.41666667,8 Z" id="Path"></path>
                    <path d="M2.97449754,11.8242583 C3.07695727,11.9367383 3.21589356,11.999949 3.36077513,12 C3.37839405,12 3.39653196,11.9988302 3.41466988,11.9970005 C3.57752241,11.9792758 3.72456225,11.8823201 3.81534308,11.7328031 L4.90798883,9.93309329 C5.01645388,9.7547644 5.02998217,9.52642199 4.94347273,9.3341648 C4.85696329,9.14190762 4.68357434,9.01497829 4.48868389,9.00123676 C4.29379343,8.98749523 4.10704463,9.08903161 3.99885293,9.26756061 L3.27609509,10.4586385 L2.92770499,10.0760802 C2.71359946,9.84686105 2.37145731,9.84924168 2.16001433,10.0814218 C1.94857136,10.313602 1.94640335,10.6892996 2.15514981,10.9244034 L2.97449754,11.8242583 Z" id="Path"></path>
                    <path d="M7.41666667,12 L11.5833333,12 C11.813452,12 12,11.7761424 12,11.5 C12,11.2238576 11.813452,11 11.5833333,11 L7.41666667,11 C7.18654802,11 7,11.2238576 7,11.5 C7,11.7761424 7.18654802,12 7.41666667,12 Z" id="Path"></path>
                    <path d="M2.97449754,15.8242583 C3.07695727,15.9367383 3.21589356,15.999949 3.36077513,16 C3.37839405,16 3.39653196,15.9988302 3.41466988,15.9970005 C3.57752241,15.9792758 3.72456225,15.8823201 3.81534308,15.7328031 L4.90798883,13.9330933 C5.01645388,13.7547644 5.02998217,13.526422 4.94347273,13.3341648 C4.85696329,13.1419076 4.68357434,13.0149783 4.48868389,13.0012368 C4.29379343,12.9874952 4.10704463,13.0890316 3.99885293,13.2675606 L3.27609509,14.4586385 L2.92770499,14.0760802 C2.71359946,13.846861 2.37145731,13.8492417 2.16001433,14.0814218 C1.94857136,14.313602 1.94640335,14.6892996 2.15514981,14.9244034 L2.97449754,15.8242583 Z" id="Path"></path>
                    <path d="M7.41666667,15 L11.5833333,15 C11.813452,15 12,14.7761424 12,14.5 C12,14.2238576 11.813452,14 11.5833333,14 L7.41666667,14 C7.18654802,14 7,14.2238576 7,14.5 C7,14.7761424 7.18654802,15 7.41666667,15 Z" id="Path"></path>
                </g>
            </g>
        </g>
    </g>
</svg>