<?xml version="1.0" encoding="UTF-8"?>
<svg width="63px" height="61px" viewBox="0 0 63 61" version="1.1" xmlns="http://www.w3.org/2000/svg" xmlns:xlink="http://www.w3.org/1999/xlink">
    <!-- Generator: Sketch 52.5 (67469) - http://www.bohemiancoding.com/sketch -->
    <title>Group 3</title>
    <desc>Created with Sketch.</desc>
    <g id="Style-Guide" stroke="none" stroke-width="1" fill="none" fill-rule="evenodd">
        <g id="Icons" transform="translate(-378.000000, -299.000000)">
            <g id="Group-3" transform="translate(378.000000, 299.000000)">
                <rect id="Rectangle" stroke="#575962" fill-rule="nonzero" x="0.5" y="0.5" width="62" height="60" rx="5"></rect>
                <path d="M41.9408892,31.1272403 C41.9408892,33.5918283 41.5367687,35.7147295 40.7285156,37.4960076 C39.9202625,39.2772856 38.7863124,40.6701658 37.3266314,41.6746898 L42.0313649,45.2489085 L39.660903,47.3689108 L34.1056985,43.0938649 C33.237128,43.3041141 32.3203173,43.4092371 31.355239,43.4092371 C29.2803205,43.4092371 27.4406675,42.9157429 25.8362247,41.9287397 C24.231782,40.9417364 22.9862464,39.5342558 22.0995807,37.7062557 C21.2129149,35.8782556 20.7575254,33.7611946 20.7333984,31.3550092 L20.7333984,29.5153378 C20.7333984,27.0624303 21.1737088,24.8957278 22.0543428,23.0151654 C22.9349768,21.134603 24.1805124,19.6950015 25.7909869,18.6963178 C27.4014614,17.697634 29.2441303,17.1982996 31.3190487,17.1982996 C33.4422211,17.1982996 35.3090165,17.6947139 36.919491,18.6875574 C38.5299655,19.680401 39.7694695,21.1083221 40.63804,22.9713637 C41.5066105,24.8344054 41.9408892,27.0098681 41.9408892,29.4978171 L41.9408892,31.1272403 Z M38.4666245,29.4802964 C38.4666245,26.4784049 37.8483805,24.1627781 36.6118739,22.5333467 C35.3753672,20.9039153 33.6111098,20.0892119 31.3190487,20.0892119 C29.1355589,20.0892119 27.4135231,20.8980752 26.1528895,22.5158261 C24.8922559,24.1335769 24.2438536,26.3791217 24.2076631,29.2525276 L24.2076631,31.1272403 C24.2076631,34.0473683 24.8379705,36.3483946 26.0986041,38.0303883 C27.3592377,39.712382 29.1114318,40.5533663 31.355239,40.5533663 C33.5990461,40.5533663 35.3361611,39.7620235 36.566636,38.1793141 C37.7971109,36.5966048 38.4304341,34.3276994 38.4666245,31.3725299 L38.4666245,29.4802964 Z" id="Q" fill="#575962"></path>
            </g>
        </g>
    </g>
</svg>