<?xml version="1.0" encoding="UTF-8"?>
<svg width="63px" height="61px" viewBox="0 0 63 61" version="1.1" xmlns="http://www.w3.org/2000/svg" xmlns:xlink="http://www.w3.org/1999/xlink">
    <!-- Generator: Sketch 52.5 (67469) - http://www.bohemiancoding.com/sketch -->
    <title>Shape</title>
    <desc>Created with Sketch.</desc>
    <g id="Style-Guide" stroke="none" stroke-width="1" fill="none" fill-rule="evenodd">
        <g id="Icons" transform="translate(-115.000000, -299.000000)" fill="#575962" fill-rule="nonzero">
            <path d="M177.990152,328.379234 L176.59543,320.608169 C176.53856,320.29607 176.257057,320.079625 175.938588,320.095684 L168.006016,320.568371 C167.288039,318.929675 166.37884,317.391521 165.310406,315.977648 L169.857826,309.628136 C170.045495,309.363515 169.996445,309.003239 169.747642,308.798664 L163.589395,303.723383 C163.344856,303.522997 162.985868,303.531376 162.753415,303.747122 L156.982591,309.114952 C155.388115,308.325976 153.687008,307.712949 151.912683,307.300307 L151.243756,299.56904 C151.215321,299.248562 150.941637,299 150.615349,299 L142.576858,299 C142.2591,299 141.989681,299.236693 141.952716,299.548792 L141.047781,307.300307 C139.269901,307.712949 137.57306,308.325976 135.977873,309.114952 L130.398273,303.615161 C130.170084,303.386847 129.799011,303.370788 129.550207,303.575363 L123.391961,308.650643 C123.147422,308.851029 123.094107,309.203625 123.273957,309.464057 L127.654323,315.973458 C126.585889,317.387331 125.675979,318.925486 124.954448,320.564182 L117.082299,319.87086 C116.756011,319.842932 116.462423,320.062868 116.405553,320.379855 L115.01012,328.154411 C114.953251,328.463019 115.14092,328.763249 115.450858,328.851223 L123.069227,331.07851 C123.175146,332.881285 123.497169,334.631695 124.003307,336.298319 L117.518772,340.732644 C117.249353,340.916971 117.168314,341.273756 117.331103,341.549549 L121.352482,348.387807 C121.511716,348.660108 121.854354,348.76833 122.147942,348.644049 L129.444288,345.535623 C130.671957,346.821724 132.058859,347.967485 133.567321,348.944279 L131.507937,356.44025 C131.422633,356.753047 131.589687,357.073525 131.899625,357.185239 L139.44904,359.881023 C139.751159,359.989246 140.085266,359.860775 140.228151,359.576604 L143.784622,352.594515 C144.669652,352.694359 145.566767,352.746725 146.480232,352.746725 C147.393697,352.746725 148.290812,352.694359 149.175842,352.594515 L152.499859,359.640839 C152.638478,359.933389 152.981117,360.073729 153.28679,359.961317 L160.84047,357.261344 C161.142588,357.153121 161.309642,356.841022 161.236423,356.536603 L159.388167,348.944977 C160.897339,347.967485 162.279977,346.821724 163.515465,345.539813 L170.677456,348.836755 C170.97531,348.972906 171.325768,348.864683 171.489267,348.584702 L175.510646,341.750633 C175.66988,341.478331 175.59595,341.129925 175.339327,340.945598 L168.956446,336.299018 C169.461873,334.632393 169.784607,332.881983 169.890526,331.079208 L177.533775,329.084425 C177.847268,329.004131 178.047732,328.695523 177.990152,328.379234 Z M146.5,343.363636 C138.589941,343.363636 132.181818,337.155575 132.181818,329.5 C132.181818,321.845099 138.589941,315.636364 146.5,315.636364 C154.405881,315.636364 160.818182,321.844425 160.818182,329.5 C160.817486,337.154901 154.405881,343.363636 146.5,343.363636 Z" id="Shape"></path>
        </g>
    </g>
</svg>