<?xml version="1.0" encoding="UTF-8"?>
<svg width="63px" height="61px" viewBox="0 0 63 61" version="1.1" xmlns="http://www.w3.org/2000/svg" xmlns:xlink="http://www.w3.org/1999/xlink">
    <!-- Generator: Sketch 52.5 (67469) - http://www.bohemiancoding.com/sketch -->
    <title>Group 2</title>
    <desc>Created with Sketch.</desc>
    <g id="Style-Guide" stroke="none" stroke-width="1" fill="none" fill-rule="evenodd">
        <g id="Icons" transform="translate(-517.000000, -299.000000)">
            <g id="Group-2" transform="translate(517.000000, 299.000000)">
                <rect id="Rectangle" stroke="#575962" fill-rule="nonzero" x="0.5" y="0.5" width="62" height="60" rx="5"></rect>
                <path d="M32.8118968,32.7391429 L26.6233628,32.7391429 L26.6233628,43.0588235 L23.131003,43.0588235 L23.131003,17.5487132 L31.852855,17.5487132 C34.820471,17.5487132 37.1034502,18.2028121 38.7018612,19.5110294 C40.3002722,20.8192467 41.0994658,22.7231416 41.0994658,25.2227711 C41.0994658,26.8113207 40.6561395,28.1954406 39.7694738,29.3751723 C38.8828081,30.554904 37.6493358,31.4367694 36.06902,32.020795 L42.257554,42.8485754 L42.257554,43.0588235 L38.5299575,43.0588235 L32.8118968,32.7391429 Z M26.6233628,29.9883961 L31.9614258,29.9883961 C33.6865033,29.9883961 35.0587035,29.5562237 36.0780676,28.6918658 C37.0974316,27.8275079 37.6071059,26.6711546 37.6071059,25.2227711 C37.6071059,23.645902 37.1215582,22.4369872 36.1504481,21.5959903 C35.179338,20.7549935 33.7769795,20.3286612 31.9433307,20.3169807 L26.6233628,20.3169807 L26.6233628,29.9883961 Z" id="R" fill="#575962"></path>
            </g>
        </g>
    </g>
</svg>